<mxfile host="app.diagrams.net" agent="Mozilla/5.0 (Windows NT 10.0; Win64; x64) AppleWebKit/537.36 (KHTML, like Gecko) Chrome/140.0.0.0 Safari/537.36" version="28.2.5">
  <diagram name="Page-1" id="VS11CbmzN9HoDP-coPFo">
    <mxGraphModel dx="1042" dy="546" grid="1" gridSize="10" guides="1" tooltips="1" connect="1" arrows="1" fold="1" page="1" pageScale="1" pageWidth="827" pageHeight="1169" math="0" shadow="0">
      <root>
        <mxCell id="0" />
        <mxCell id="1" parent="0" />
        <mxCell id="uCxRtQAXOyeC3COM3v-j-1" value="Actor" style="shape=umlActor;verticalLabelPosition=bottom;verticalAlign=top;html=1;outlineConnect=0;" parent="1" vertex="1">
          <mxGeometry x="30" y="290" width="30" height="60" as="geometry" />
        </mxCell>
        <mxCell id="uCxRtQAXOyeC3COM3v-j-3" value="" style="image;aspect=fixed;html=1;points=[];align=center;fontSize=12;image=img/lib/azure2/general/Image.svg;" parent="1" vertex="1">
          <mxGeometry x="420" y="260" width="64" height="44" as="geometry" />
        </mxCell>
        <mxCell id="uCxRtQAXOyeC3COM3v-j-8" style="edgeStyle=orthogonalEdgeStyle;rounded=0;orthogonalLoop=1;jettySize=auto;html=1;entryX=0;entryY=0.5;entryDx=0;entryDy=0;entryPerimeter=0;" parent="1" source="uCxRtQAXOyeC3COM3v-j-4" target="uCxRtQAXOyeC3COM3v-j-9" edge="1">
          <mxGeometry relative="1" as="geometry">
            <mxPoint x="320" y="320" as="targetPoint" />
          </mxGeometry>
        </mxCell>
        <mxCell id="RHHmNpgtg1KIb0i62A3O-1" style="edgeStyle=orthogonalEdgeStyle;rounded=0;orthogonalLoop=1;jettySize=auto;html=1;exitX=1;exitY=0.5;exitDx=0;exitDy=0;exitPerimeter=0;entryX=0;entryY=0.5;entryDx=0;entryDy=0;entryPerimeter=0;" edge="1" parent="1" source="uCxRtQAXOyeC3COM3v-j-4" target="RHHmNpgtg1KIb0i62A3O-3">
          <mxGeometry relative="1" as="geometry">
            <mxPoint x="490" y="76.79998779296875" as="targetPoint" />
            <Array as="points">
              <mxPoint x="410" y="320" />
              <mxPoint x="410" y="150" />
            </Array>
          </mxGeometry>
        </mxCell>
        <mxCell id="RHHmNpgtg1KIb0i62A3O-15" value="get {filename}" style="edgeLabel;html=1;align=center;verticalAlign=middle;resizable=0;points=[];" vertex="1" connectable="0" parent="RHHmNpgtg1KIb0i62A3O-1">
          <mxGeometry x="0.6639" y="-3" relative="1" as="geometry">
            <mxPoint x="4" y="17" as="offset" />
          </mxGeometry>
        </mxCell>
        <mxCell id="uCxRtQAXOyeC3COM3v-j-4" value="API Gateway" style="sketch=0;points=[[0,0,0],[0.25,0,0],[0.5,0,0],[0.75,0,0],[1,0,0],[0,1,0],[0.25,1,0],[0.5,1,0],[0.75,1,0],[1,1,0],[0,0.25,0],[0,0.5,0],[0,0.75,0],[1,0.25,0],[1,0.5,0],[1,0.75,0]];outlineConnect=0;fontColor=#232F3E;fillColor=#8C4FFF;strokeColor=#ffffff;dashed=0;verticalLabelPosition=bottom;verticalAlign=top;align=center;html=1;fontSize=12;fontStyle=0;aspect=fixed;shape=mxgraph.aws4.resourceIcon;resIcon=mxgraph.aws4.api_gateway;" parent="1" vertex="1">
          <mxGeometry x="280" y="281" width="78" height="78" as="geometry" />
        </mxCell>
        <mxCell id="uCxRtQAXOyeC3COM3v-j-5" style="edgeStyle=orthogonalEdgeStyle;rounded=0;orthogonalLoop=1;jettySize=auto;html=1;entryX=0;entryY=0.5;entryDx=0;entryDy=0;entryPerimeter=0;" parent="1" source="uCxRtQAXOyeC3COM3v-j-1" target="uCxRtQAXOyeC3COM3v-j-4" edge="1">
          <mxGeometry relative="1" as="geometry" />
        </mxCell>
        <mxCell id="uCxRtQAXOyeC3COM3v-j-7" value="Upload image" style="edgeLabel;html=1;align=center;verticalAlign=middle;resizable=0;points=[];" parent="uCxRtQAXOyeC3COM3v-j-5" vertex="1" connectable="0">
          <mxGeometry x="0.1323" y="3" relative="1" as="geometry">
            <mxPoint x="267" y="18" as="offset" />
          </mxGeometry>
        </mxCell>
        <mxCell id="RHHmNpgtg1KIb0i62A3O-12" style="edgeStyle=orthogonalEdgeStyle;rounded=0;orthogonalLoop=1;jettySize=auto;html=1;entryX=0;entryY=0.5;entryDx=0;entryDy=0;" edge="1" parent="1" source="uCxRtQAXOyeC3COM3v-j-9" target="RHHmNpgtg1KIb0i62A3O-10">
          <mxGeometry relative="1" as="geometry" />
        </mxCell>
        <mxCell id="uCxRtQAXOyeC3COM3v-j-9" value="Upload image lambda" style="sketch=0;points=[[0,0,0],[0.25,0,0],[0.5,0,0],[0.75,0,0],[1,0,0],[0,1,0],[0.25,1,0],[0.5,1,0],[0.75,1,0],[1,1,0],[0,0.25,0],[0,0.5,0],[0,0.75,0],[1,0.25,0],[1,0.5,0],[1,0.75,0]];outlineConnect=0;fontColor=#232F3E;fillColor=#ED7100;strokeColor=#ffffff;dashed=0;verticalLabelPosition=bottom;verticalAlign=top;align=center;html=1;fontSize=12;fontStyle=0;aspect=fixed;shape=mxgraph.aws4.resourceIcon;resIcon=mxgraph.aws4.lambda;" parent="1" vertex="1">
          <mxGeometry x="500" y="281" width="78" height="78" as="geometry" />
        </mxCell>
        <mxCell id="uCxRtQAXOyeC3COM3v-j-15" style="edgeStyle=orthogonalEdgeStyle;rounded=0;orthogonalLoop=1;jettySize=auto;html=1;entryX=0;entryY=0.5;entryDx=0;entryDy=0;entryPerimeter=0;" parent="1" source="uCxRtQAXOyeC3COM3v-j-12" target="uCxRtQAXOyeC3COM3v-j-14" edge="1">
          <mxGeometry relative="1" as="geometry">
            <mxPoint x="890" y="380" as="targetPoint" />
          </mxGeometry>
        </mxCell>
        <mxCell id="uCxRtQAXOyeC3COM3v-j-17" value="put trigger&lt;div&gt;&lt;br&gt;&lt;/div&gt;" style="edgeLabel;html=1;align=center;verticalAlign=middle;resizable=0;points=[];" parent="uCxRtQAXOyeC3COM3v-j-15" vertex="1" connectable="0">
          <mxGeometry x="0.2422" y="-1" relative="1" as="geometry">
            <mxPoint x="-9" y="19" as="offset" />
          </mxGeometry>
        </mxCell>
        <mxCell id="uCxRtQAXOyeC3COM3v-j-19" style="edgeStyle=orthogonalEdgeStyle;rounded=0;orthogonalLoop=1;jettySize=auto;html=1;entryX=0;entryY=0.5;entryDx=0;entryDy=0;" parent="1" source="uCxRtQAXOyeC3COM3v-j-14" target="uCxRtQAXOyeC3COM3v-j-16" edge="1">
          <mxGeometry relative="1" as="geometry" />
        </mxCell>
        <mxCell id="uCxRtQAXOyeC3COM3v-j-14" value="put event" style="sketch=0;points=[[0,0,0],[0.25,0,0],[0.5,0,0],[0.75,0,0],[1,0,0],[0,1,0],[0.25,1,0],[0.5,1,0],[0.75,1,0],[1,1,0],[0,0.25,0],[0,0.5,0],[0,0.75,0],[1,0.25,0],[1,0.5,0],[1,0.75,0]];outlineConnect=0;fontColor=#232F3E;fillColor=#E7157B;strokeColor=#ffffff;dashed=0;verticalLabelPosition=bottom;verticalAlign=top;align=center;html=1;fontSize=12;fontStyle=0;aspect=fixed;shape=mxgraph.aws4.resourceIcon;resIcon=mxgraph.aws4.eventbridge;" parent="1" vertex="1">
          <mxGeometry x="920" y="281" width="78" height="78" as="geometry" />
        </mxCell>
        <mxCell id="uCxRtQAXOyeC3COM3v-j-16" value="AWS Step Functions workflow" style="points=[[0,0],[0.25,0],[0.5,0],[0.75,0],[1,0],[1,0.25],[1,0.5],[1,0.75],[1,1],[0.75,1],[0.5,1],[0.25,1],[0,1],[0,0.75],[0,0.5],[0,0.25]];outlineConnect=0;gradientColor=none;html=1;whiteSpace=wrap;fontSize=12;fontStyle=0;container=1;pointerEvents=0;collapsible=0;recursiveResize=0;shape=mxgraph.aws4.group;grIcon=mxgraph.aws4.group_aws_step_functions_workflow;strokeColor=#CD2264;fillColor=none;verticalAlign=top;align=left;spacingLeft=30;fontColor=#CD2264;dashed=0;" parent="1" vertex="1">
          <mxGeometry x="1060" y="200" width="390" height="240" as="geometry" />
        </mxCell>
        <mxCell id="uCxRtQAXOyeC3COM3v-j-20" value="resize image" style="sketch=0;points=[[0,0,0],[0.25,0,0],[0.5,0,0],[0.75,0,0],[1,0,0],[0,1,0],[0.25,1,0],[0.5,1,0],[0.75,1,0],[1,1,0],[0,0.25,0],[0,0.5,0],[0,0.75,0],[1,0.25,0],[1,0.5,0],[1,0.75,0]];outlineConnect=0;fontColor=#232F3E;fillColor=#ED7100;strokeColor=#ffffff;dashed=0;verticalLabelPosition=bottom;verticalAlign=top;align=center;html=1;fontSize=12;fontStyle=0;aspect=fixed;shape=mxgraph.aws4.resourceIcon;resIcon=mxgraph.aws4.lambda;" parent="uCxRtQAXOyeC3COM3v-j-16" vertex="1">
          <mxGeometry x="90" y="96" width="48" height="48" as="geometry" />
        </mxCell>
        <mxCell id="uCxRtQAXOyeC3COM3v-j-33" style="edgeStyle=orthogonalEdgeStyle;rounded=0;orthogonalLoop=1;jettySize=auto;html=1;" parent="uCxRtQAXOyeC3COM3v-j-16" source="uCxRtQAXOyeC3COM3v-j-21" target="uCxRtQAXOyeC3COM3v-j-32" edge="1">
          <mxGeometry relative="1" as="geometry" />
        </mxCell>
        <mxCell id="uCxRtQAXOyeC3COM3v-j-21" value="add watermark" style="sketch=0;points=[[0,0,0],[0.25,0,0],[0.5,0,0],[0.75,0,0],[1,0,0],[0,1,0],[0.25,1,0],[0.5,1,0],[0.75,1,0],[1,1,0],[0,0.25,0],[0,0.5,0],[0,0.75,0],[1,0.25,0],[1,0.5,0],[1,0.75,0]];outlineConnect=0;fontColor=#232F3E;fillColor=#ED7100;strokeColor=#ffffff;dashed=0;verticalLabelPosition=bottom;verticalAlign=top;align=center;html=1;fontSize=12;fontStyle=0;aspect=fixed;shape=mxgraph.aws4.resourceIcon;resIcon=mxgraph.aws4.lambda;" parent="uCxRtQAXOyeC3COM3v-j-16" vertex="1">
          <mxGeometry x="180" y="96" width="48" height="48" as="geometry" />
        </mxCell>
        <mxCell id="uCxRtQAXOyeC3COM3v-j-22" value="" style="ellipse;shape=doubleEllipse;html=1;dashed=0;whiteSpace=wrap;aspect=fixed;" parent="uCxRtQAXOyeC3COM3v-j-16" vertex="1">
          <mxGeometry x="10" y="104.99999999999999" width="30" height="30" as="geometry" />
        </mxCell>
        <mxCell id="uCxRtQAXOyeC3COM3v-j-23" value="" style="ellipse;html=1;shape=endState;fillColor=#000000;strokeColor=#ff0000;" parent="uCxRtQAXOyeC3COM3v-j-16" vertex="1">
          <mxGeometry x="340" y="105" width="30" height="30" as="geometry" />
        </mxCell>
        <mxCell id="uCxRtQAXOyeC3COM3v-j-24" style="edgeStyle=orthogonalEdgeStyle;rounded=0;orthogonalLoop=1;jettySize=auto;html=1;entryX=0;entryY=0.5;entryDx=0;entryDy=0;entryPerimeter=0;exitX=1;exitY=0.5;exitDx=0;exitDy=0;" parent="uCxRtQAXOyeC3COM3v-j-16" source="uCxRtQAXOyeC3COM3v-j-22" target="uCxRtQAXOyeC3COM3v-j-20" edge="1">
          <mxGeometry relative="1" as="geometry">
            <mxPoint x="40" y="114" as="sourcePoint" />
          </mxGeometry>
        </mxCell>
        <mxCell id="uCxRtQAXOyeC3COM3v-j-25" style="edgeStyle=orthogonalEdgeStyle;rounded=0;orthogonalLoop=1;jettySize=auto;html=1;entryX=0;entryY=0.5;entryDx=0;entryDy=0;entryPerimeter=0;" parent="uCxRtQAXOyeC3COM3v-j-16" source="uCxRtQAXOyeC3COM3v-j-20" target="uCxRtQAXOyeC3COM3v-j-21" edge="1">
          <mxGeometry relative="1" as="geometry" />
        </mxCell>
        <mxCell id="uCxRtQAXOyeC3COM3v-j-40" style="edgeStyle=orthogonalEdgeStyle;rounded=0;orthogonalLoop=1;jettySize=auto;html=1;entryX=0;entryY=0.5;entryDx=0;entryDy=0;" parent="uCxRtQAXOyeC3COM3v-j-16" source="uCxRtQAXOyeC3COM3v-j-32" target="uCxRtQAXOyeC3COM3v-j-23" edge="1">
          <mxGeometry relative="1" as="geometry" />
        </mxCell>
        <mxCell id="uCxRtQAXOyeC3COM3v-j-32" value="s3" style="sketch=0;points=[[0,0,0],[0.25,0,0],[0.5,0,0],[0.75,0,0],[1,0,0],[0,1,0],[0.25,1,0],[0.5,1,0],[0.75,1,0],[1,1,0],[0,0.25,0],[0,0.5,0],[0,0.75,0],[1,0.25,0],[1,0.5,0],[1,0.75,0]];outlineConnect=0;fontColor=#232F3E;fillColor=#7AA116;strokeColor=#ffffff;dashed=0;verticalLabelPosition=bottom;verticalAlign=top;align=center;html=1;fontSize=12;fontStyle=0;aspect=fixed;shape=mxgraph.aws4.resourceIcon;resIcon=mxgraph.aws4.s3;" parent="uCxRtQAXOyeC3COM3v-j-16" vertex="1">
          <mxGeometry x="260" y="96" width="48" height="48" as="geometry" />
        </mxCell>
        <mxCell id="RHHmNpgtg1KIb0i62A3O-13" style="edgeStyle=orthogonalEdgeStyle;rounded=0;orthogonalLoop=1;jettySize=auto;html=1;" edge="1" parent="1" source="RHHmNpgtg1KIb0i62A3O-2" target="RHHmNpgtg1KIb0i62A3O-10">
          <mxGeometry relative="1" as="geometry" />
        </mxCell>
        <mxCell id="RHHmNpgtg1KIb0i62A3O-2" value="get-procesed-image" style="sketch=0;points=[[0,0,0],[0.25,0,0],[0.5,0,0],[0.75,0,0],[1,0,0],[0,1,0],[0.25,1,0],[0.5,1,0],[0.75,1,0],[1,1,0],[0,0.25,0],[0,0.5,0],[0,0.75,0],[1,0.25,0],[1,0.5,0],[1,0.75,0]];outlineConnect=0;fontColor=#232F3E;fillColor=#ED7100;strokeColor=#ffffff;dashed=0;verticalLabelPosition=bottom;verticalAlign=top;align=center;html=1;fontSize=12;fontStyle=0;aspect=fixed;shape=mxgraph.aws4.resourceIcon;resIcon=mxgraph.aws4.lambda;" vertex="1" parent="1">
          <mxGeometry x="500" y="450" width="78" height="78" as="geometry" />
        </mxCell>
        <mxCell id="RHHmNpgtg1KIb0i62A3O-11" style="edgeStyle=orthogonalEdgeStyle;rounded=0;orthogonalLoop=1;jettySize=auto;html=1;entryX=0;entryY=0.5;entryDx=0;entryDy=0;" edge="1" parent="1" source="RHHmNpgtg1KIb0i62A3O-3" target="RHHmNpgtg1KIb0i62A3O-10">
          <mxGeometry relative="1" as="geometry">
            <mxPoint x="690" y="320" as="targetPoint" />
          </mxGeometry>
        </mxCell>
        <mxCell id="RHHmNpgtg1KIb0i62A3O-3" value="get-image-metadat" style="sketch=0;points=[[0,0,0],[0.25,0,0],[0.5,0,0],[0.75,0,0],[1,0,0],[0,1,0],[0.25,1,0],[0.5,1,0],[0.75,1,0],[1,1,0],[0,0.25,0],[0,0.5,0],[0,0.75,0],[1,0.25,0],[1,0.5,0],[1,0.75,0]];outlineConnect=0;fontColor=#232F3E;fillColor=#ED7100;strokeColor=#ffffff;dashed=0;verticalLabelPosition=bottom;verticalAlign=top;align=center;html=1;fontSize=12;fontStyle=0;aspect=fixed;shape=mxgraph.aws4.resourceIcon;resIcon=mxgraph.aws4.lambda;" vertex="1" parent="1">
          <mxGeometry x="500" y="110" width="78" height="78" as="geometry" />
        </mxCell>
        <mxCell id="RHHmNpgtg1KIb0i62A3O-4" style="edgeStyle=orthogonalEdgeStyle;rounded=0;orthogonalLoop=1;jettySize=auto;html=1;entryX=0;entryY=0.5;entryDx=0;entryDy=0;entryPerimeter=0;" edge="1" parent="1" source="uCxRtQAXOyeC3COM3v-j-4" target="RHHmNpgtg1KIb0i62A3O-2">
          <mxGeometry relative="1" as="geometry">
            <Array as="points">
              <mxPoint x="410" y="320" />
              <mxPoint x="410" y="489" />
            </Array>
          </mxGeometry>
        </mxCell>
        <mxCell id="RHHmNpgtg1KIb0i62A3O-16" value="get {filename}" style="edgeLabel;html=1;align=center;verticalAlign=middle;resizable=0;points=[];" vertex="1" connectable="0" parent="RHHmNpgtg1KIb0i62A3O-4">
          <mxGeometry x="0.7659" y="4" relative="1" as="geometry">
            <mxPoint x="-14" y="25" as="offset" />
          </mxGeometry>
        </mxCell>
        <mxCell id="RHHmNpgtg1KIb0i62A3O-10" value="" style="swimlane;startSize=0;" vertex="1" parent="1">
          <mxGeometry x="720" y="180" width="120" height="280" as="geometry">
            <mxRectangle x="720" y="180" width="50" height="40" as="alternateBounds" />
          </mxGeometry>
        </mxCell>
        <mxCell id="uCxRtQAXOyeC3COM3v-j-38" value="metadata table" style="sketch=0;points=[[0,0,0],[0.25,0,0],[0.5,0,0],[0.75,0,0],[1,0,0],[0,1,0],[0.25,1,0],[0.5,1,0],[0.75,1,0],[1,1,0],[0,0.25,0],[0,0.5,0],[0,0.75,0],[1,0.25,0],[1,0.5,0],[1,0.75,0]];outlineConnect=0;fontColor=#232F3E;fillColor=#C925D1;strokeColor=#ffffff;dashed=0;verticalLabelPosition=bottom;verticalAlign=top;align=center;html=1;fontSize=12;fontStyle=0;aspect=fixed;shape=mxgraph.aws4.resourceIcon;resIcon=mxgraph.aws4.dynamodb;" parent="RHHmNpgtg1KIb0i62A3O-10" vertex="1">
          <mxGeometry x="21" y="38" width="78" height="78" as="geometry" />
        </mxCell>
        <mxCell id="uCxRtQAXOyeC3COM3v-j-12" value="s3 bucket" style="sketch=0;points=[[0,0,0],[0.25,0,0],[0.5,0,0],[0.75,0,0],[1,0,0],[0,1,0],[0.25,1,0],[0.5,1,0],[0.75,1,0],[1,1,0],[0,0.25,0],[0,0.5,0],[0,0.75,0],[1,0.25,0],[1,0.5,0],[1,0.75,0]];outlineConnect=0;fontColor=#232F3E;fillColor=#7AA116;strokeColor=#ffffff;dashed=0;verticalLabelPosition=bottom;verticalAlign=top;align=center;html=1;fontSize=12;fontStyle=0;aspect=fixed;shape=mxgraph.aws4.resourceIcon;resIcon=mxgraph.aws4.s3;" parent="RHHmNpgtg1KIb0i62A3O-10" vertex="1">
          <mxGeometry x="21" y="161" width="78" height="78" as="geometry" />
        </mxCell>
      </root>
    </mxGraphModel>
  </diagram>
</mxfile>
